# xmcd
#
# Track frame offsets: 
#        150
#        15710
#        32953
#        48034
#        65065
#        78946
#
# Disc length: 1277 seconds
#
# Revision: 0
# Processed by: cddbd v1.5.1PL0 Copyright (c) Steve Scherf et al.
# Submitted via: ExactAudioCopy v0.95a5
#
DISCID=4404fb06
DTITLE=Zane Williams - Zane Williams
DYEAR=1900
DGENRE=Country
TTITLE0=Hurry Home
TTITLE1=My Heart for Yours
TTITLE2=(What's So Good About) Normal, Baby
TTITLE3=Song in My Head
TTITLE4=Oh, My Goodness
TTITLE5=Hurry Home
EXTD=
EXTT0=
EXTT1=
EXTT2=
EXTT3=
EXTT4=
EXTT5=
PLAYORDER=
